<mxfile host="app.diagrams.net" agent="Mozilla/5.0 (Macintosh; Intel Mac OS X 10_15_7) AppleWebKit/537.36 (KHTML, like Gecko) Chrome/128.0.0.0 Safari/537.36" version="24.7.16">
  <diagram name="第 1 页" id="_J3dPSbUNi-rrp4ABNox">
    <mxGraphModel dx="1363" dy="724" grid="1" gridSize="10" guides="1" tooltips="1" connect="1" arrows="1" fold="1" page="1" pageScale="1" pageWidth="827" pageHeight="1169" math="0" shadow="0">
      <root>
        <mxCell id="0" />
        <mxCell id="1" parent="0" />
        <mxCell id="6hxKovEdgKeWJlxCs5ZZ-14" value="" style="edgeStyle=orthogonalEdgeStyle;rounded=0;orthogonalLoop=1;jettySize=auto;html=1;" edge="1" parent="1" source="6hxKovEdgKeWJlxCs5ZZ-1" target="6hxKovEdgKeWJlxCs5ZZ-13">
          <mxGeometry relative="1" as="geometry" />
        </mxCell>
        <mxCell id="6hxKovEdgKeWJlxCs5ZZ-1" value="B端" style="shape=umlActor;verticalLabelPosition=bottom;verticalAlign=top;html=1;outlineConnect=0;" vertex="1" parent="1">
          <mxGeometry x="150" y="190" width="30" height="60" as="geometry" />
        </mxCell>
        <mxCell id="6hxKovEdgKeWJlxCs5ZZ-24" value="" style="edgeStyle=orthogonalEdgeStyle;rounded=0;orthogonalLoop=1;jettySize=auto;html=1;" edge="1" parent="1" source="6hxKovEdgKeWJlxCs5ZZ-8">
          <mxGeometry relative="1" as="geometry">
            <mxPoint x="1620" y="220" as="targetPoint" />
          </mxGeometry>
        </mxCell>
        <mxCell id="6hxKovEdgKeWJlxCs5ZZ-8" value="C端" style="shape=umlActor;verticalLabelPosition=bottom;verticalAlign=top;html=1;outlineConnect=0;" vertex="1" parent="1">
          <mxGeometry x="1655" y="190" width="30" height="60" as="geometry" />
        </mxCell>
        <mxCell id="6hxKovEdgKeWJlxCs5ZZ-18" value="" style="edgeStyle=orthogonalEdgeStyle;rounded=0;orthogonalLoop=1;jettySize=auto;html=1;" edge="1" parent="1" source="6hxKovEdgKeWJlxCs5ZZ-13" target="6hxKovEdgKeWJlxCs5ZZ-17">
          <mxGeometry relative="1" as="geometry" />
        </mxCell>
        <mxCell id="6hxKovEdgKeWJlxCs5ZZ-13" value="&lt;p&gt;&lt;font style=&quot;font-size: 18px;&quot;&gt;注册、登录&lt;/font&gt;&lt;/p&gt;" style="whiteSpace=wrap;html=1;verticalAlign=top;" vertex="1" parent="1">
          <mxGeometry x="215" y="190" width="120" height="60" as="geometry" />
        </mxCell>
        <mxCell id="6hxKovEdgKeWJlxCs5ZZ-22" value="" style="edgeStyle=orthogonalEdgeStyle;rounded=0;orthogonalLoop=1;jettySize=auto;html=1;" edge="1" parent="1" source="6hxKovEdgKeWJlxCs5ZZ-17" target="6hxKovEdgKeWJlxCs5ZZ-21">
          <mxGeometry relative="1" as="geometry" />
        </mxCell>
        <mxCell id="6hxKovEdgKeWJlxCs5ZZ-17" value="&lt;p&gt;&lt;font style=&quot;font-size: 18px;&quot;&gt;认证&lt;/font&gt;&lt;/p&gt;" style="whiteSpace=wrap;html=1;verticalAlign=top;" vertex="1" parent="1">
          <mxGeometry x="375" y="190" width="120" height="60" as="geometry" />
        </mxCell>
        <mxCell id="6hxKovEdgKeWJlxCs5ZZ-29" value="" style="edgeStyle=orthogonalEdgeStyle;rounded=0;orthogonalLoop=1;jettySize=auto;html=1;" edge="1" parent="1" source="6hxKovEdgKeWJlxCs5ZZ-21" target="6hxKovEdgKeWJlxCs5ZZ-28">
          <mxGeometry relative="1" as="geometry" />
        </mxCell>
        <mxCell id="6hxKovEdgKeWJlxCs5ZZ-21" value="&lt;p&gt;&lt;span style=&quot;font-size: 18px;&quot;&gt;购买套餐&lt;/span&gt;&lt;/p&gt;" style="whiteSpace=wrap;html=1;verticalAlign=top;" vertex="1" parent="1">
          <mxGeometry x="545" y="190" width="120" height="60" as="geometry" />
        </mxCell>
        <mxCell id="6hxKovEdgKeWJlxCs5ZZ-27" value="" style="edgeStyle=orthogonalEdgeStyle;rounded=0;orthogonalLoop=1;jettySize=auto;html=1;" edge="1" parent="1" source="6hxKovEdgKeWJlxCs5ZZ-25">
          <mxGeometry relative="1" as="geometry">
            <mxPoint x="1420" y="220" as="targetPoint" />
          </mxGeometry>
        </mxCell>
        <mxCell id="6hxKovEdgKeWJlxCs5ZZ-25" value="&lt;p&gt;&lt;span style=&quot;font-size: 18px;&quot;&gt;注册登录&lt;/span&gt;&lt;/p&gt;" style="whiteSpace=wrap;html=1;verticalAlign=top;" vertex="1" parent="1">
          <mxGeometry x="1500" y="190" width="120" height="60" as="geometry" />
        </mxCell>
        <mxCell id="6hxKovEdgKeWJlxCs5ZZ-31" value="" style="edgeStyle=orthogonalEdgeStyle;rounded=0;orthogonalLoop=1;jettySize=auto;html=1;" edge="1" parent="1" source="6hxKovEdgKeWJlxCs5ZZ-26">
          <mxGeometry relative="1" as="geometry">
            <mxPoint x="1220" y="220" as="targetPoint" />
          </mxGeometry>
        </mxCell>
        <mxCell id="6hxKovEdgKeWJlxCs5ZZ-26" value="&lt;p&gt;&lt;span style=&quot;font-size: 18px;&quot;&gt;上传简历&lt;/span&gt;&lt;/p&gt;" style="whiteSpace=wrap;html=1;verticalAlign=top;" vertex="1" parent="1">
          <mxGeometry x="1300" y="190" width="120" height="60" as="geometry" />
        </mxCell>
        <mxCell id="6hxKovEdgKeWJlxCs5ZZ-33" value="" style="edgeStyle=orthogonalEdgeStyle;rounded=0;orthogonalLoop=1;jettySize=auto;html=1;" edge="1" parent="1" source="6hxKovEdgKeWJlxCs5ZZ-28">
          <mxGeometry relative="1" as="geometry">
            <mxPoint x="945" y="220" as="targetPoint" />
          </mxGeometry>
        </mxCell>
        <mxCell id="6hxKovEdgKeWJlxCs5ZZ-28" value="&lt;p&gt;&lt;span style=&quot;font-size: 18px;&quot;&gt;发布职位&lt;/span&gt;&lt;/p&gt;" style="whiteSpace=wrap;html=1;verticalAlign=top;" vertex="1" parent="1">
          <mxGeometry x="745" y="190" width="120" height="60" as="geometry" />
        </mxCell>
        <mxCell id="6hxKovEdgKeWJlxCs5ZZ-36" value="" style="edgeStyle=orthogonalEdgeStyle;rounded=0;orthogonalLoop=1;jettySize=auto;html=1;" edge="1" parent="1" source="6hxKovEdgKeWJlxCs5ZZ-34" target="6hxKovEdgKeWJlxCs5ZZ-35">
          <mxGeometry relative="1" as="geometry" />
        </mxCell>
        <mxCell id="6hxKovEdgKeWJlxCs5ZZ-34" value="职位库" style="shape=cylinder3;whiteSpace=wrap;html=1;boundedLbl=1;backgroundOutline=1;size=15;" vertex="1" parent="1">
          <mxGeometry x="950" y="180" width="60" height="80" as="geometry" />
        </mxCell>
        <mxCell id="6hxKovEdgKeWJlxCs5ZZ-37" value="" style="edgeStyle=orthogonalEdgeStyle;rounded=0;orthogonalLoop=1;jettySize=auto;html=1;" edge="1" parent="1" source="6hxKovEdgKeWJlxCs5ZZ-35" target="6hxKovEdgKeWJlxCs5ZZ-34">
          <mxGeometry relative="1" as="geometry" />
        </mxCell>
        <mxCell id="6hxKovEdgKeWJlxCs5ZZ-38" value="简历推搜/职位推搜" style="edgeLabel;html=1;align=center;verticalAlign=middle;resizable=0;points=[];" vertex="1" connectable="0" parent="6hxKovEdgKeWJlxCs5ZZ-37">
          <mxGeometry x="0.1857" y="-1" relative="1" as="geometry">
            <mxPoint as="offset" />
          </mxGeometry>
        </mxCell>
        <mxCell id="6hxKovEdgKeWJlxCs5ZZ-35" value="简历库" style="shape=cylinder3;whiteSpace=wrap;html=1;boundedLbl=1;backgroundOutline=1;size=15;" vertex="1" parent="1">
          <mxGeometry x="1160" y="180" width="60" height="80" as="geometry" />
        </mxCell>
        <mxCell id="6hxKovEdgKeWJlxCs5ZZ-45" value="" style="edgeStyle=orthogonalEdgeStyle;rounded=0;orthogonalLoop=1;jettySize=auto;html=1;" edge="1" parent="1" source="6hxKovEdgKeWJlxCs5ZZ-39" target="6hxKovEdgKeWJlxCs5ZZ-44">
          <mxGeometry relative="1" as="geometry" />
        </mxCell>
        <mxCell id="6hxKovEdgKeWJlxCs5ZZ-39" value="&lt;p&gt;&lt;font style=&quot;font-size: 18px;&quot;&gt;开始&lt;/font&gt;&lt;/p&gt;" style="rounded=1;whiteSpace=wrap;html=1;" vertex="1" parent="1">
          <mxGeometry x="440" y="540" width="120" height="60" as="geometry" />
        </mxCell>
        <mxCell id="6hxKovEdgKeWJlxCs5ZZ-47" value="" style="edgeStyle=orthogonalEdgeStyle;rounded=0;orthogonalLoop=1;jettySize=auto;html=1;" edge="1" parent="1" source="6hxKovEdgKeWJlxCs5ZZ-44" target="6hxKovEdgKeWJlxCs5ZZ-46">
          <mxGeometry relative="1" as="geometry" />
        </mxCell>
        <mxCell id="6hxKovEdgKeWJlxCs5ZZ-44" value="&lt;font style=&quot;font-size: 18px;&quot;&gt;验真中心&lt;/font&gt;" style="rounded=0;whiteSpace=wrap;html=1;" vertex="1" parent="1">
          <mxGeometry x="440" y="630" width="120" height="60" as="geometry" />
        </mxCell>
        <mxCell id="6hxKovEdgKeWJlxCs5ZZ-49" value="" style="edgeStyle=orthogonalEdgeStyle;rounded=0;orthogonalLoop=1;jettySize=auto;html=1;" edge="1" parent="1" source="6hxKovEdgKeWJlxCs5ZZ-46" target="6hxKovEdgKeWJlxCs5ZZ-48">
          <mxGeometry relative="1" as="geometry" />
        </mxCell>
        <mxCell id="6hxKovEdgKeWJlxCs5ZZ-51" value="" style="edgeStyle=orthogonalEdgeStyle;rounded=0;orthogonalLoop=1;jettySize=auto;html=1;" edge="1" parent="1" source="6hxKovEdgKeWJlxCs5ZZ-46" target="6hxKovEdgKeWJlxCs5ZZ-50">
          <mxGeometry relative="1" as="geometry" />
        </mxCell>
        <mxCell id="6hxKovEdgKeWJlxCs5ZZ-46" value="&lt;font style=&quot;font-size: 18px;&quot;&gt;选择验真类型&lt;/font&gt;" style="rhombus;whiteSpace=wrap;html=1;rounded=0;" vertex="1" parent="1">
          <mxGeometry x="460" y="730" width="80" height="80" as="geometry" />
        </mxCell>
        <mxCell id="6hxKovEdgKeWJlxCs5ZZ-53" value="" style="edgeStyle=orthogonalEdgeStyle;rounded=0;orthogonalLoop=1;jettySize=auto;html=1;" edge="1" parent="1" source="6hxKovEdgKeWJlxCs5ZZ-48" target="6hxKovEdgKeWJlxCs5ZZ-52">
          <mxGeometry relative="1" as="geometry" />
        </mxCell>
        <mxCell id="6hxKovEdgKeWJlxCs5ZZ-48" value="&lt;font style=&quot;font-size: 18px;&quot;&gt;自助验真&lt;/font&gt;" style="whiteSpace=wrap;html=1;rounded=0;" vertex="1" parent="1">
          <mxGeometry x="440" y="850" width="120" height="60" as="geometry" />
        </mxCell>
        <mxCell id="6hxKovEdgKeWJlxCs5ZZ-64" value="" style="edgeStyle=orthogonalEdgeStyle;rounded=0;orthogonalLoop=1;jettySize=auto;html=1;" edge="1" parent="1" source="6hxKovEdgKeWJlxCs5ZZ-50" target="6hxKovEdgKeWJlxCs5ZZ-63">
          <mxGeometry relative="1" as="geometry" />
        </mxCell>
        <mxCell id="6hxKovEdgKeWJlxCs5ZZ-50" value="&lt;font style=&quot;font-size: 18px;&quot;&gt;远程验真&lt;/font&gt;" style="whiteSpace=wrap;html=1;rounded=0;" vertex="1" parent="1">
          <mxGeometry x="600" y="740" width="120" height="60" as="geometry" />
        </mxCell>
        <mxCell id="6hxKovEdgKeWJlxCs5ZZ-55" value="" style="edgeStyle=orthogonalEdgeStyle;rounded=0;orthogonalLoop=1;jettySize=auto;html=1;" edge="1" parent="1" source="6hxKovEdgKeWJlxCs5ZZ-52" target="6hxKovEdgKeWJlxCs5ZZ-54">
          <mxGeometry relative="1" as="geometry" />
        </mxCell>
        <mxCell id="6hxKovEdgKeWJlxCs5ZZ-52" value="&lt;font style=&quot;font-size: 18px;&quot;&gt;上传验真材料&lt;/font&gt;" style="whiteSpace=wrap;html=1;rounded=0;" vertex="1" parent="1">
          <mxGeometry x="440" y="990" width="120" height="60" as="geometry" />
        </mxCell>
        <mxCell id="6hxKovEdgKeWJlxCs5ZZ-73" style="edgeStyle=orthogonalEdgeStyle;rounded=0;orthogonalLoop=1;jettySize=auto;html=1;entryX=0.5;entryY=0;entryDx=0;entryDy=0;" edge="1" parent="1" source="6hxKovEdgKeWJlxCs5ZZ-54" target="6hxKovEdgKeWJlxCs5ZZ-69">
          <mxGeometry relative="1" as="geometry" />
        </mxCell>
        <mxCell id="6hxKovEdgKeWJlxCs5ZZ-54" value="&lt;font style=&quot;font-size: 18px;&quot;&gt;提交至审核平台&lt;/font&gt;" style="whiteSpace=wrap;html=1;rounded=0;" vertex="1" parent="1">
          <mxGeometry x="440" y="1130" width="120" height="60" as="geometry" />
        </mxCell>
        <mxCell id="6hxKovEdgKeWJlxCs5ZZ-56" value="&lt;font style=&quot;font-size: 18px;&quot;&gt;预约&lt;/font&gt;" style="whiteSpace=wrap;html=1;rounded=0;" vertex="1" parent="1">
          <mxGeometry x="800" y="860" width="120" height="60" as="geometry" />
        </mxCell>
        <mxCell id="6hxKovEdgKeWJlxCs5ZZ-68" value="" style="edgeStyle=orthogonalEdgeStyle;rounded=0;orthogonalLoop=1;jettySize=auto;html=1;" edge="1" parent="1" source="6hxKovEdgKeWJlxCs5ZZ-58" target="6hxKovEdgKeWJlxCs5ZZ-67">
          <mxGeometry relative="1" as="geometry" />
        </mxCell>
        <mxCell id="6hxKovEdgKeWJlxCs5ZZ-58" value="&lt;font style=&quot;font-size: 18px;&quot;&gt;立即排队&lt;/font&gt;" style="whiteSpace=wrap;html=1;rounded=0;" vertex="1" parent="1">
          <mxGeometry x="600" y="990" width="120" height="60" as="geometry" />
        </mxCell>
        <mxCell id="6hxKovEdgKeWJlxCs5ZZ-60" value="" style="endArrow=classic;html=1;rounded=0;entryX=1;entryY=0.5;entryDx=0;entryDy=0;exitX=0.5;exitY=1;exitDx=0;exitDy=0;" edge="1" parent="1" source="6hxKovEdgKeWJlxCs5ZZ-56" target="6hxKovEdgKeWJlxCs5ZZ-58">
          <mxGeometry width="50" height="50" relative="1" as="geometry">
            <mxPoint x="860" y="810" as="sourcePoint" />
            <mxPoint x="910" y="760" as="targetPoint" />
            <Array as="points">
              <mxPoint x="860" y="1020" />
            </Array>
          </mxGeometry>
        </mxCell>
        <mxCell id="6hxKovEdgKeWJlxCs5ZZ-65" value="" style="edgeStyle=orthogonalEdgeStyle;rounded=0;orthogonalLoop=1;jettySize=auto;html=1;" edge="1" parent="1" source="6hxKovEdgKeWJlxCs5ZZ-63" target="6hxKovEdgKeWJlxCs5ZZ-58">
          <mxGeometry relative="1" as="geometry" />
        </mxCell>
        <mxCell id="6hxKovEdgKeWJlxCs5ZZ-66" value="" style="edgeStyle=orthogonalEdgeStyle;rounded=0;orthogonalLoop=1;jettySize=auto;html=1;" edge="1" parent="1" source="6hxKovEdgKeWJlxCs5ZZ-63" target="6hxKovEdgKeWJlxCs5ZZ-56">
          <mxGeometry relative="1" as="geometry" />
        </mxCell>
        <mxCell id="6hxKovEdgKeWJlxCs5ZZ-63" value="&lt;font style=&quot;font-size: 18px;&quot;&gt;选择时间&lt;/font&gt;" style="rhombus;whiteSpace=wrap;html=1;" vertex="1" parent="1">
          <mxGeometry x="620" y="850" width="80" height="80" as="geometry" />
        </mxCell>
        <mxCell id="6hxKovEdgKeWJlxCs5ZZ-70" value="" style="edgeStyle=orthogonalEdgeStyle;rounded=0;orthogonalLoop=1;jettySize=auto;html=1;" edge="1" parent="1" source="6hxKovEdgKeWJlxCs5ZZ-67" target="6hxKovEdgKeWJlxCs5ZZ-69">
          <mxGeometry relative="1" as="geometry" />
        </mxCell>
        <mxCell id="6hxKovEdgKeWJlxCs5ZZ-67" value="&lt;font style=&quot;font-size: 18px;&quot;&gt;视频会议&lt;/font&gt;" style="whiteSpace=wrap;html=1;rounded=0;" vertex="1" parent="1">
          <mxGeometry x="600" y="1130" width="120" height="60" as="geometry" />
        </mxCell>
        <mxCell id="6hxKovEdgKeWJlxCs5ZZ-74" value="" style="edgeStyle=orthogonalEdgeStyle;rounded=0;orthogonalLoop=1;jettySize=auto;html=1;" edge="1" parent="1" source="6hxKovEdgKeWJlxCs5ZZ-69" target="6hxKovEdgKeWJlxCs5ZZ-72">
          <mxGeometry relative="1" as="geometry" />
        </mxCell>
        <mxCell id="6hxKovEdgKeWJlxCs5ZZ-69" value="&lt;span style=&quot;font-size: 18px;&quot;&gt;审核&lt;/span&gt;" style="whiteSpace=wrap;html=1;rounded=0;" vertex="1" parent="1">
          <mxGeometry x="530" y="1290" width="120" height="60" as="geometry" />
        </mxCell>
        <mxCell id="6hxKovEdgKeWJlxCs5ZZ-72" value="&lt;font style=&quot;font-size: 18px;&quot;&gt;结束&lt;/font&gt;" style="rounded=1;whiteSpace=wrap;html=1;" vertex="1" parent="1">
          <mxGeometry x="530" y="1410" width="120" height="60" as="geometry" />
        </mxCell>
      </root>
    </mxGraphModel>
  </diagram>
</mxfile>
